<svg xmlns="http://www.w3.org/2000/svg" width="1216" height="460" fill="none" viewBox="0 0 1216 460">
  <g fill="#A1C487" fill-opacity=".7" opacity=".4">
    <circle cx="27.5" cy="460.1" r="2.5"/>
    <circle cx="74" cy="460.1" r="2.5"/>
    <circle cx="120.4" cy="460.1" r="2.5"/>
    <circle cx="166.9" cy="460.1" r="2.5"/>
    <circle cx="213.4" cy="460.1" r="2.5"/>
    <circle cx="259.9" cy="460.1" r="2.5"/>
    <circle cx="306.4" cy="460.1" r="2.5"/>
    <circle cx="352.9" cy="460.1" r="2.5"/>
    <circle cx="399.3" cy="460.1" r="2.5"/>
    <circle cx="445.8" cy="460.1" r="2.5"/>
    <circle cx="492.3" cy="460.1" r="2.5"/>
    <circle cx="538.8" cy="460.1" r="2.5"/>
    <circle cx="585.3" cy="460.1" r="2.5"/>
    <circle cx="631.7" cy="460.1" r="2.5"/>
    <circle cx="678.2" cy="460.1" r="2.5"/>
    <circle cx="724.7" cy="460.1" r="2.5"/>
    <circle cx="771.2" cy="460.1" r="2.5"/>
    <circle cx="817.7" cy="460.1" r="2.5"/>
    <circle cx="864.1" cy="460.1" r="2.5"/>
    <circle cx="910.6" cy="460.1" r="2.5"/>
    <circle cx="957.1" cy="460.1" r="2.5"/>
    <circle cx="1003.6" cy="460.1" r="2.5"/>
    <circle cx="1050.1" cy="460.1" r="2.5"/>
    <circle cx="1096.6" cy="460.1" r="2.5"/>
    <circle cx="1143" cy="460.1" r="2.5"/>
    <circle cx="1189.5" cy="460.1" r="2.5"/>
    <circle cx="27.5" cy="414.8" r="2.5"/>
    <circle cx="74" cy="414.8" r="2.5"/>
    <circle cx="120.4" cy="414.8" r="2.5"/>
    <circle cx="166.9" cy="414.8" r="2.5"/>
    <circle cx="213.4" cy="414.8" r="2.5"/>
    <circle cx="259.9" cy="414.8" r="2.5"/>
    <circle cx="306.4" cy="414.8" r="2.5"/>
    <circle cx="352.9" cy="414.8" r="2.5"/>
    <circle cx="399.3" cy="414.8" r="2.5"/>
    <circle cx="445.8" cy="414.8" r="2.5"/>
    <circle cx="492.3" cy="414.8" r="2.5"/>
    <circle cx="538.8" cy="414.8" r="2.5"/>
    <circle cx="585.3" cy="414.8" r="2.5"/>
    <circle cx="631.7" cy="414.8" r="2.5"/>
    <circle cx="678.2" cy="414.8" r="2.5"/>
    <circle cx="724.7" cy="414.8" r="2.5"/>
    <circle cx="771.2" cy="414.8" r="2.5"/>
    <circle cx="817.7" cy="414.8" r="2.5"/>
    <circle cx="864.1" cy="414.8" r="2.5"/>
    <circle cx="910.6" cy="414.8" r="2.5"/>
    <circle cx="957.1" cy="414.8" r="2.5"/>
    <circle cx="1003.6" cy="414.8" r="2.5"/>
    <circle cx="1050.1" cy="414.8" r="2.5"/>
    <circle cx="1096.6" cy="414.8" r="2.5"/>
    <circle cx="1143" cy="414.8" r="2.5"/>
    <circle cx="1189.5" cy="414.8" r="2.5"/>
    <circle cx="27.5" cy="369.6" r="2.5"/>
    <circle cx="74" cy="369.6" r="2.5"/>
    <circle cx="120.4" cy="369.6" r="2.5"/>
    <circle cx="166.9" cy="369.6" r="2.5"/>
    <circle cx="213.4" cy="369.6" r="2.5"/>
    <circle cx="259.9" cy="369.6" r="2.5"/>
    <circle cx="306.4" cy="369.6" r="2.5"/>
    <circle cx="352.9" cy="369.6" r="2.5"/>
    <circle cx="399.3" cy="369.6" r="2.5"/>
    <circle cx="445.8" cy="369.6" r="2.5"/>
    <circle cx="492.3" cy="369.6" r="2.5"/>
    <circle cx="538.8" cy="369.6" r="2.5"/>
    <circle cx="585.3" cy="369.6" r="2.5"/>
    <circle cx="631.7" cy="369.6" r="2.5"/>
    <circle cx="678.2" cy="369.6" r="2.5"/>
    <circle cx="724.7" cy="369.6" r="2.5"/>
    <circle cx="771.2" cy="369.6" r="2.5"/>
    <circle cx="817.7" cy="369.6" r="2.5"/>
    <circle cx="864.1" cy="369.6" r="2.5"/>
    <circle cx="910.6" cy="369.6" r="2.5"/>
    <circle cx="957.1" cy="369.6" r="2.5"/>
    <circle cx="1003.6" cy="369.6" r="2.5"/>
    <circle cx="1050.1" cy="369.6" r="2.5"/>
    <circle cx="1096.6" cy="369.6" r="2.5"/>
    <circle cx="1143" cy="369.6" r="2.5"/>
    <circle cx="1189.5" cy="369.6" r="2.5"/>
    <circle cx="27.5" cy="324.4" r="2.5"/>
    <circle cx="74" cy="324.4" r="2.5"/>
    <circle cx="120.4" cy="324.4" r="2.5"/>
    <circle cx="166.9" cy="324.4" r="2.5"/>
    <circle cx="213.4" cy="324.4" r="2.5"/>
    <circle cx="259.9" cy="324.4" r="2.5"/>
    <circle cx="306.4" cy="324.4" r="2.5"/>
    <circle cx="352.9" cy="324.4" r="2.5"/>
    <circle cx="399.3" cy="324.4" r="2.5"/>
    <circle cx="445.8" cy="324.4" r="2.5"/>
    <circle cx="492.3" cy="324.4" r="2.5"/>
    <circle cx="538.8" cy="324.4" r="2.5"/>
    <circle cx="585.3" cy="324.4" r="2.5"/>
    <circle cx="631.7" cy="324.4" r="2.5"/>
    <circle cx="678.2" cy="324.4" r="2.5"/>
    <circle cx="724.7" cy="324.4" r="2.5"/>
    <circle cx="771.2" cy="324.4" r="2.5"/>
    <circle cx="817.7" cy="324.4" r="2.5"/>
    <circle cx="864.1" cy="324.4" r="2.5"/>
    <circle cx="910.6" cy="324.4" r="2.5"/>
    <circle cx="957.1" cy="324.4" r="2.5"/>
    <circle cx="1003.6" cy="324.4" r="2.5"/>
    <circle cx="1050.1" cy="324.4" r="2.5"/>
    <circle cx="1096.6" cy="324.4" r="2.5"/>
    <circle cx="1143" cy="324.4" r="2.5"/>
    <circle cx="1189.5" cy="324.4" r="2.5"/>
    <circle cx="27.5" cy="279.2" r="2.5"/>
    <circle cx="74" cy="279.2" r="2.5"/>
    <circle cx="120.4" cy="279.2" r="2.5"/>
    <circle cx="166.9" cy="279.2" r="2.5"/>
    <circle cx="213.4" cy="279.2" r="2.5"/>
    <circle cx="259.9" cy="279.2" r="2.5"/>
    <circle cx="306.4" cy="279.2" r="2.5"/>
    <circle cx="352.9" cy="279.2" r="2.5"/>
    <circle cx="399.3" cy="279.2" r="2.5"/>
    <circle cx="445.8" cy="279.2" r="2.5"/>
    <circle cx="492.3" cy="279.2" r="2.5"/>
    <circle cx="538.8" cy="279.2" r="2.5"/>
    <circle cx="585.3" cy="279.2" r="2.5"/>
    <circle cx="631.7" cy="279.2" r="2.5"/>
    <circle cx="678.2" cy="279.2" r="2.5"/>
    <circle cx="724.7" cy="279.2" r="2.5"/>
    <circle cx="771.2" cy="279.2" r="2.5"/>
    <circle cx="817.7" cy="279.2" r="2.5"/>
    <circle cx="864.1" cy="279.2" r="2.5"/>
    <circle cx="910.6" cy="279.2" r="2.5"/>
    <circle cx="957.1" cy="279.2" r="2.5"/>
    <circle cx="1003.6" cy="279.2" r="2.5"/>
    <circle cx="1050.1" cy="279.2" r="2.5"/>
    <circle cx="1096.6" cy="279.2" r="2.5"/>
    <circle cx="1143" cy="279.2" r="2.5"/>
    <circle cx="1189.5" cy="279.2" r="2.5"/>
    <circle cx="27.5" cy="233.9" r="2.5"/>
    <circle cx="74" cy="233.9" r="2.5"/>
    <circle cx="120.4" cy="233.9" r="2.5"/>
    <circle cx="166.9" cy="233.9" r="2.5"/>
    <circle cx="213.4" cy="233.9" r="2.5"/>
    <circle cx="259.9" cy="233.9" r="2.5"/>
    <circle cx="306.4" cy="233.9" r="2.5"/>
    <circle cx="352.9" cy="233.9" r="2.5"/>
    <circle cx="399.3" cy="233.9" r="2.5"/>
    <circle cx="445.8" cy="233.9" r="2.5"/>
    <circle cx="492.3" cy="233.9" r="2.5"/>
    <circle cx="538.8" cy="233.9" r="2.5"/>
    <circle cx="585.3" cy="233.9" r="2.5"/>
    <circle cx="631.7" cy="233.9" r="2.5"/>
    <circle cx="678.2" cy="233.9" r="2.5"/>
    <circle cx="724.7" cy="233.9" r="2.5"/>
    <circle cx="771.2" cy="233.9" r="2.5"/>
    <circle cx="817.7" cy="233.9" r="2.5"/>
    <circle cx="864.1" cy="233.9" r="2.5"/>
    <circle cx="910.6" cy="233.9" r="2.5"/>
    <circle cx="957.1" cy="233.9" r="2.5"/>
    <circle cx="1003.6" cy="233.9" r="2.5"/>
    <circle cx="1050.1" cy="233.9" r="2.5"/>
    <circle cx="1096.6" cy="233.9" r="2.5"/>
    <circle cx="1143" cy="233.9" r="2.5"/>
    <circle cx="1189.5" cy="233.9" r="2.5"/>
    <circle cx="27.5" cy="188.7" r="2.5"/>
    <circle cx="74" cy="188.7" r="2.5"/>
    <circle cx="120.4" cy="188.7" r="2.5"/>
    <circle cx="166.9" cy="188.7" r="2.5"/>
    <circle cx="213.4" cy="188.7" r="2.5"/>
    <circle cx="259.9" cy="188.7" r="2.5"/>
    <circle cx="306.4" cy="188.7" r="2.5"/>
    <circle cx="352.9" cy="188.7" r="2.5"/>
    <circle cx="399.3" cy="188.7" r="2.5"/>
    <circle cx="445.8" cy="188.7" r="2.5"/>
    <circle cx="492.3" cy="188.7" r="2.5"/>
    <circle cx="538.8" cy="188.7" r="2.5"/>
    <circle cx="585.3" cy="188.7" r="2.5"/>
    <circle cx="631.7" cy="188.7" r="2.5"/>
    <circle cx="678.2" cy="188.7" r="2.5"/>
    <circle cx="724.7" cy="188.7" r="2.5"/>
    <circle cx="771.2" cy="188.7" r="2.5"/>
    <circle cx="817.7" cy="188.7" r="2.5"/>
    <circle cx="864.1" cy="188.7" r="2.5"/>
    <circle cx="910.6" cy="188.7" r="2.5"/>
    <circle cx="957.1" cy="188.7" r="2.5"/>
    <circle cx="1003.6" cy="188.7" r="2.5"/>
    <circle cx="1050.1" cy="188.7" r="2.5"/>
    <circle cx="1096.6" cy="188.7" r="2.5"/>
    <circle cx="1143" cy="188.7" r="2.5"/>
    <circle cx="1189.5" cy="188.7" r="2.5"/>
    <circle cx="27.5" cy="143.5" r="2.5"/>
    <circle cx="74" cy="143.5" r="2.5"/>
    <circle cx="120.4" cy="143.5" r="2.5"/>
    <circle cx="166.9" cy="143.5" r="2.5"/>
    <circle cx="213.4" cy="143.5" r="2.5"/>
    <circle cx="259.9" cy="143.5" r="2.5"/>
    <circle cx="306.4" cy="143.5" r="2.5"/>
    <circle cx="352.9" cy="143.5" r="2.5"/>
    <circle cx="399.3" cy="143.5" r="2.5"/>
    <circle cx="445.8" cy="143.5" r="2.5"/>
    <circle cx="492.3" cy="143.5" r="2.5"/>
    <circle cx="538.8" cy="143.5" r="2.5"/>
    <circle cx="585.3" cy="143.5" r="2.5"/>
    <circle cx="631.7" cy="143.5" r="2.5"/>
    <circle cx="678.2" cy="143.5" r="2.5"/>
    <circle cx="724.7" cy="143.5" r="2.5"/>
    <circle cx="771.2" cy="143.5" r="2.5"/>
    <circle cx="817.7" cy="143.5" r="2.5"/>
    <circle cx="864.1" cy="143.5" r="2.5"/>
    <circle cx="910.6" cy="143.5" r="2.5"/>
    <circle cx="957.1" cy="143.5" r="2.5"/>
    <circle cx="1003.6" cy="143.5" r="2.5"/>
    <circle cx="1050.1" cy="143.5" r="2.5"/>
    <circle cx="1096.6" cy="143.5" r="2.5"/>
    <circle cx="1143" cy="143.5" r="2.5"/>
    <circle cx="1189.5" cy="143.5" r="2.5"/>
    <circle cx="27.5" cy="98.3" r="2.5"/>
    <circle cx="74" cy="98.3" r="2.5"/>
    <circle cx="120.4" cy="98.3" r="2.5"/>
    <circle cx="166.9" cy="98.3" r="2.5"/>
    <circle cx="213.4" cy="98.3" r="2.5"/>
    <circle cx="259.9" cy="98.3" r="2.5"/>
    <circle cx="306.4" cy="98.3" r="2.5"/>
    <circle cx="352.9" cy="98.3" r="2.5"/>
    <circle cx="399.3" cy="98.3" r="2.5"/>
    <circle cx="445.8" cy="98.3" r="2.5"/>
    <circle cx="492.3" cy="98.3" r="2.5"/>
    <circle cx="538.8" cy="98.3" r="2.5"/>
    <circle cx="585.3" cy="98.3" r="2.5"/>
    <circle cx="631.7" cy="98.3" r="2.5"/>
    <circle cx="678.2" cy="98.3" r="2.5"/>
    <circle cx="724.7" cy="98.3" r="2.5"/>
    <circle cx="771.2" cy="98.3" r="2.5"/>
    <circle cx="817.7" cy="98.3" r="2.5"/>
    <circle cx="864.1" cy="98.3" r="2.5"/>
    <circle cx="910.6" cy="98.3" r="2.5"/>
    <circle cx="957.1" cy="98.3" r="2.5"/>
    <circle cx="1003.6" cy="98.3" r="2.5"/>
    <circle cx="1050.1" cy="98.3" r="2.5"/>
    <circle cx="1096.6" cy="98.3" r="2.5"/>
    <circle cx="1143" cy="98.3" r="2.5"/>
    <circle cx="1189.5" cy="98.3" r="2.5"/>
    <circle cx="27.5" cy="53" r="2.5"/>
    <circle cx="74" cy="53" r="2.5"/>
    <circle cx="120.4" cy="53" r="2.5"/>
    <circle cx="166.9" cy="53" r="2.5"/>
    <circle cx="213.4" cy="53" r="2.5"/>
    <circle cx="259.9" cy="53" r="2.5"/>
    <circle cx="306.4" cy="53" r="2.5"/>
    <circle cx="352.9" cy="53" r="2.5"/>
    <circle cx="399.3" cy="53" r="2.5"/>
    <circle cx="445.8" cy="53" r="2.5"/>
    <circle cx="492.3" cy="53" r="2.5"/>
    <circle cx="538.8" cy="53" r="2.5"/>
    <circle cx="585.3" cy="53" r="2.5"/>
    <circle cx="631.7" cy="53" r="2.5"/>
    <circle cx="678.2" cy="53" r="2.5"/>
    <circle cx="724.7" cy="53" r="2.5"/>
    <circle cx="771.2" cy="53" r="2.5"/>
    <circle cx="817.7" cy="53" r="2.5"/>
    <circle cx="864.1" cy="53" r="2.5"/>
    <circle cx="910.6" cy="53" r="2.5"/>
    <circle cx="957.1" cy="53" r="2.5"/>
    <circle cx="1003.6" cy="53" r="2.5"/>
    <circle cx="1050.1" cy="53" r="2.5"/>
    <circle cx="1096.6" cy="53" r="2.5"/>
    <circle cx="1143" cy="53" r="2.5"/>
    <circle cx="1189.5" cy="53" r="2.5"/>
    <circle cx="27.5" cy="7.8" r="2.5"/>
    <circle cx="74" cy="7.8" r="2.5"/>
    <circle cx="120.4" cy="7.8" r="2.5"/>
    <circle cx="166.9" cy="7.8" r="2.5"/>
    <circle cx="213.4" cy="7.8" r="2.5"/>
    <circle cx="259.9" cy="7.8" r="2.5"/>
    <circle cx="306.4" cy="7.8" r="2.5"/>
    <circle cx="352.9" cy="7.8" r="2.5"/>
    <circle cx="399.3" cy="7.8" r="2.5"/>
    <circle cx="445.8" cy="7.8" r="2.5"/>
    <circle cx="492.3" cy="7.8" r="2.5"/>
    <circle cx="538.8" cy="7.8" r="2.5"/>
    <circle cx="585.3" cy="7.8" r="2.5"/>
    <circle cx="631.7" cy="7.8" r="2.5"/>
    <circle cx="678.2" cy="7.8" r="2.5"/>
    <circle cx="724.7" cy="7.8" r="2.5"/>
    <circle cx="771.2" cy="7.8" r="2.5"/>
    <circle cx="817.7" cy="7.8" r="2.5"/>
    <circle cx="864.1" cy="7.8" r="2.5"/>
    <circle cx="910.6" cy="7.8" r="2.5"/>
    <circle cx="957.1" cy="7.8" r="2.5"/>
    <circle cx="1003.6" cy="7.8" r="2.5"/>
    <circle cx="1050.1" cy="7.8" r="2.5"/>
    <circle cx="1096.6" cy="7.8" r="2.5"/>
    <circle cx="1143" cy="7.8" r="2.5"/>
    <circle cx="1189.5" cy="7.8" r="2.5"/>
  </g>
</svg>
