<svg xmlns="http://www.w3.org/2000/svg" aria-hidden="true" style="position:absolute;width:0;height:0;overflow:hidden">
  <defs>
    <symbol id="icon-close" viewBox="0 0 32 32">
      <path stroke-linecap="round" stroke-linejoin="round" stroke-width="3.429" d="M24 8 8 24M8 8l16 16"/>
    </symbol>
    <symbol id="icon-logo" viewBox="0 0 32 32">
      <path d="M28.313 1.237h-3.774c-1.164 0-2.108.925-2.108 2.066v3.698c0 1.141.944 2.066 2.108 2.066h3.774c1.164 0 2.108-.925 2.108-2.066V3.303c0-1.141-.944-2.066-2.108-2.066zM7.276 22.626H3.212c-1.254 0-2.271.925-2.271 2.066v3.698c0 1.141 1.017 2.066 2.271 2.066h4.064c1.254 0 2.271-.925 2.271-2.066v-3.698c0-1.141-1.017-2.066-2.271-2.066zM6.823 11.842H3.049c-1.164 0-2.108.925-2.108 2.066v3.698c0 1.141.944 2.066 2.109 2.066h3.773c1.164 0 2.108-.925 2.108-2.066v-3.698c0-1.141-.944-2.066-2.108-2.066zM17.662 22.568h-3.774c-1.164 0-2.108.925-2.108 2.066v3.698c0 1.141.944 2.066 2.109 2.066h3.773c1.165 0 2.109-.925 2.109-2.066v-3.698c0-1.141-.944-2.066-2.109-2.066zM6.823 1.022H3.049c-1.164 0-2.108.925-2.108 2.066v3.698c0 1.141.944 2.066 2.109 2.066h3.773c1.164 0 2.108-.925 2.108-2.066V3.088c0-1.141-.944-2.066-2.108-2.066zM17.954 11.951H14.18c-1.164 0-2.108.925-2.108 2.066v3.698c0 1.141.944 2.066 2.109 2.066h3.773c1.165 0 2.108-.925 2.108-2.066v-3.698c0-1.141-.944-2.066-2.108-2.066zM28.549 22.568h-3.774c-1.164 0-2.108.925-2.108 2.066v3.698c0 1.141.944 2.066 2.108 2.066h3.774c1.164 0 2.108-.925 2.108-2.066v-3.698c0-1.141-.944-2.066-2.108-2.066zM17.497 1.152h-3.774c-1.164 0-2.108.925-2.108 2.066v3.698c0 1.141.944 2.066 2.109 2.066h3.773c1.164 0 2.108-.926 2.108-2.067V3.218c0-1.141-.944-2.066-2.108-2.066zM28.277 12.165h-3.774c-1.164 0-2.108.925-2.108 2.066v3.698c0 1.141.944 2.066 2.108 2.066h3.774c1.164 0 2.108-.925 2.108-2.066v-3.698c0-1.141-.944-2.066-2.108-2.066z"/>
    </symbol>
    <symbol id="icon-arrow" viewBox="0 0 32 32">
      <path d="M32 4.741 27.259 0v23.704L3.555 0-.001 3.556 23.703 27.26H-.001l4.741 4.741h27.259V4.742z"/>
    </symbol>
    <symbol id="icon-basket" viewBox="0 0 32 32">
      <path stroke-width="2" d="M5.114 31 1.181 7.4H30.82L26.887 31H5.115z"/>
      <path d="M6.533 7.467C6.533 2.239 10.771-2 16-2s9.467 4.238 9.467 9.467h-4a5.467 5.467 0 0 0-10.934 0h-4zM23.467 12.8zm-16.934 0V7.467A9.467 9.467 0 0 1 16-2v4a5.467 5.467 0 0 0-5.467 5.467V12.8h-4zM16-2a9.467 9.467 0 0 1 9.467 9.467V12.8h-4V7.467A5.467 5.467 0 0 0 16 2v-4z"/>
    </symbol>
    <symbol id="icon-youtube" viewBox="0 0 32 32">
      <path d="M24.24 6c-1.36-.08-4.16-.16-8.4-.16h-.56c-4.08 0-6.8.08-8.16.24-1.84.16-3.12.64-3.84 1.28-.64.56-1.12 1.6-1.28 2.96-.08.88-.16 2.72-.16 5.52v.4c0 2.64.08 4.48.24 5.36.24 1.28.64 2.24 1.44 2.8.8.64 2.16 1.04 4.08 1.2 1.36.08 4.16.16 8.4.16h.56c4.08 0 6.8-.08 8.16-.24 1.84-.16 3.12-.64 3.84-1.28.64-.56 1.12-1.6 1.28-2.96.08-.88.16-2.72.16-5.52v-.4c0-2.64-.08-4.48-.24-5.36-.24-1.28-.64-2.24-1.44-2.8-.8-.64-2.16-1.04-4.08-1.2zm-3.12 9.84-8.8 5.28V10.56l8.8 5.28z"/>
    </symbol>
    <symbol id="icon-instagram" viewBox="0 0 32 32">
      <path d="M28.718 10.756a9.264 9.264 0 0 0-.596-3.145 6.547 6.547 0 0 0-3.743-3.737 9.42 9.42 0 0 0-3.108-.596c-1.368-.061-1.801-.078-5.273-.078s-3.916 0-5.274.078a9.413 9.413 0 0 0-3.106.596 6.541 6.541 0 0 0-3.743 3.737 9.288 9.288 0 0 0-.596 3.101c-.061 1.367-.08 1.8-.08 5.265s0 3.909.08 5.265a9.335 9.335 0 0 0 .596 3.104 6.548 6.548 0 0 0 3.744 3.735 9.37 9.37 0 0 0 3.106.639c1.369.061 1.803.08 5.274.08s3.916 0 5.274-.08a9.362 9.362 0 0 0 3.108-.595 6.555 6.555 0 0 0 3.743-3.737 9.35 9.35 0 0 0 .596-3.104c.061-1.365.08-1.798.08-5.265-.003-3.466-.003-3.906-.082-5.264zM15.99 22.531c-3.631 0-6.572-2.936-6.572-6.561s2.941-6.561 6.572-6.561c3.628 0 6.572 2.936 6.572 6.561s-2.944 6.561-6.572 6.561zm6.834-11.835a1.53 1.53 0 1 1 0-3.06 1.53 1.53 0 1 1 0 3.06z"/>
      <path d="M15.992 19.976a4.004 4.004 0 1 0 0-8.009 4.004 4.004 0 0 0 0 8.009z"/>
    </symbol>
    <symbol id="icon-facebook" viewBox="0 0 32 32">
      <path d="M19.52 4.64h.96v3.6h-1.2c-.48 0-.96 0-1.2.24s-.24.48-.24 1.04v1.28h2.64v3.04h-2.64v13.2h-4.08V13.76H11.6v-3.04h2.16V9.68c0-1.76.24-3.04.72-3.6.72-1.04 2.16-1.52 4.32-1.52.24.08.48.08.72.08z"/>
    </symbol>
    <symbol id="icon-menu" viewBox="0 0 32 32">
      <path d="M2.667 7.993c0-0.733 0.595-1.327 1.327-1.327h10.68c0.733 0 1.327 0.594 1.327 1.327s-0.594 1.327-1.327 1.327h-10.68c-0.733 0-1.327-0.594-1.327-1.327v0zM2.667 16c0-0.733 0.595-1.327 1.327-1.327h24.013c0.733 0 1.327 0.594 1.327 1.327s-0.594 1.327-1.327 1.327h-24.013c-0.733 0-1.327-0.594-1.327-1.327v0zM3.993 22.68c-0.733 0-1.327 0.594-1.327 1.327s0.594 1.327 1.327 1.327h16.013c0.733 0 1.327-0.594 1.327-1.327s-0.594-1.327-1.327-1.327h-16.013z"></path>
    </symbol>
    <symbol id="icon-check" viewBox="0 0 32 32">
      <path d="M27.027 4.016c0.527-0.51 1.246-0.824 2.039-0.824 1.605 0 2.91 1.289 2.934 2.889l0 0.002c0.001 0.023 0.001 0.049 0.001 0.076 0 0.772-0.295 1.475-0.777 2.003l0.002-0.002-15.661 19.693c-0.539 0.582-1.308 0.946-2.162 0.946-0.396 0-0.774-0.078-1.119-0.22l0.020 0.007c-0.382-0.158-0.707-0.379-0.979-0.653l-0-0-10.387-10.442c-0.579-0.542-0.94-1.311-0.94-2.164 0-0.401 0.080-0.784 0.224-1.132l-0.007 0.020c0.451-1.094 1.509-1.85 2.744-1.85 0.014 0 0.028 0 0.042 0l-0.002-0c0.83 0.015 1.574 0.374 2.097 0.939l0.002 0.002 8.221 8.262 13.632-17.466c0.026-0.031 0.052-0.059 0.080-0.086l-0.003-0z"></path>
    </symbol>
    <symbol id="icon-oval" viewBox="0 0 85 32">
      <path d="M42.553 22.468c18.331 0 33.191-2.896 33.191-6.468s-14.86-6.468-33.191-6.468-33.191 2.896-33.191 6.468 14.86 6.468 33.191 6.468z"></path>
    </symbol>
    <symbol id="icon-shopping-cart" viewBox="0 0 32 32">
      <path stroke-linejoin="round" stroke-linecap="round" stroke-miterlimit="4" stroke-width="2.6667" d="M12 29.333c0.736 0 1.333-0.597 1.333-1.333s-0.597-1.333-1.333-1.333v0c-0.736 0-1.333 0.597-1.333 1.333s0.597 1.333 1.333 1.333v0zM26.667 29.333c0.736 0 1.333-0.597 1.333-1.333s-0.597-1.333-1.333-1.333v0c-0.736 0-1.333 0.597-1.333 1.333s0.597 1.333 1.333 1.333v0z"></path>
      <path stroke-linejoin="round" stroke-linecap="round" stroke-miterlimit="4" stroke-width="2.4" d="M1.333 1.333h5.333l3.573 17.853c0.251 1.233 1.327 2.147 2.616 2.147 0.018 0 0.036-0 0.054-0.001l-0.003 0h12.96c0.015 0 0.033 0 0.051 0 1.289 0 2.364-0.914 2.613-2.13l0.003-0.017 2.133-11.187h-22.667"></path>
    </symbol>
  </defs>
</svg>
