<svg xmlns="http://www.w3.org/2000/svg" aria-hidden="true" style="position:absolute;width:0;height:0;overflow:hidden">
  <defs>
    <symbol id="icon-close" viewBox="0 0 32 32">
      <path stroke-linecap="round" stroke-linejoin="round" stroke-width="3.429" d="M24 8 8 24M8 8l16 16"/>
    </symbol>
    <symbol id="icon-logo" viewBox="0 0 32 32">
      <path d="M28.313 1.237h-3.774c-1.164 0-2.108.925-2.108 2.066v3.698c0 1.141.944 2.066 2.108 2.066h3.774c1.164 0 2.108-.925 2.108-2.066V3.303c0-1.141-.944-2.066-2.108-2.066zM7.276 22.626H3.212c-1.254 0-2.271.925-2.271 2.066v3.698c0 1.141 1.017 2.066 2.271 2.066h4.064c1.254 0 2.271-.925 2.271-2.066v-3.698c0-1.141-1.017-2.066-2.271-2.066zM6.823 11.842H3.049c-1.164 0-2.108.925-2.108 2.066v3.698c0 1.141.944 2.066 2.109 2.066h3.773c1.164 0 2.108-.925 2.108-2.066v-3.698c0-1.141-.944-2.066-2.108-2.066zM17.662 22.568h-3.774c-1.164 0-2.108.925-2.108 2.066v3.698c0 1.141.944 2.066 2.109 2.066h3.773c1.165 0 2.109-.925 2.109-2.066v-3.698c0-1.141-.944-2.066-2.109-2.066zM6.823 1.022H3.049c-1.164 0-2.108.925-2.108 2.066v3.698c0 1.141.944 2.066 2.109 2.066h3.773c1.164 0 2.108-.925 2.108-2.066V3.088c0-1.141-.944-2.066-2.108-2.066zM17.954 11.951H14.18c-1.164 0-2.108.925-2.108 2.066v3.698c0 1.141.944 2.066 2.109 2.066h3.773c1.165 0 2.108-.925 2.108-2.066v-3.698c0-1.141-.944-2.066-2.108-2.066zM28.549 22.568h-3.774c-1.164 0-2.108.925-2.108 2.066v3.698c0 1.141.944 2.066 2.108 2.066h3.774c1.164 0 2.108-.925 2.108-2.066v-3.698c0-1.141-.944-2.066-2.108-2.066zM17.497 1.152h-3.774c-1.164 0-2.108.925-2.108 2.066v3.698c0 1.141.944 2.066 2.109 2.066h3.773c1.164 0 2.108-.926 2.108-2.067V3.218c0-1.141-.944-2.066-2.108-2.066zM28.277 12.165h-3.774c-1.164 0-2.108.925-2.108 2.066v3.698c0 1.141.944 2.066 2.108 2.066h3.774c1.164 0 2.108-.925 2.108-2.066v-3.698c0-1.141-.944-2.066-2.108-2.066z"/>
    </symbol>
    <symbol id="icon-vector" viewBox="0 0 32 32">
      <path d="M32 4.741 27.259 0v23.704L3.555 0-.001 3.556 23.703 27.26H-.001l4.741 4.741h27.259V4.742z"/>
    </symbol>
    <symbol id="icon-basket" viewBox="0 0 32 32">
      <path stroke-width="2" d="M5.114 31 1.181 7.4H30.82L26.887 31H5.115z"/>
      <path d="M6.533 7.467C6.533 2.239 10.771-2 16-2s9.467 4.238 9.467 9.467h-4a5.467 5.467 0 0 0-10.934 0h-4zM23.467 12.8zm-16.934 0V7.467A9.467 9.467 0 0 1 16-2v4a5.467 5.467 0 0 0-5.467 5.467V12.8h-4zM16-2a9.467 9.467 0 0 1 9.467 9.467V12.8h-4V7.467A5.467 5.467 0 0 0 16 2v-4z"/>
    </symbol>
    <symbol id="icon-youtube" viewBox="0 0 32 32">
      <path d="M24.24 6c-1.36-.08-4.16-.16-8.4-.16h-.56c-4.08 0-6.8.08-8.16.24-1.84.16-3.12.64-3.84 1.28-.64.56-1.12 1.6-1.28 2.96-.08.88-.16 2.72-.16 5.52v.4c0 2.64.08 4.48.24 5.36.24 1.28.64 2.24 1.44 2.8.8.64 2.16 1.04 4.08 1.2 1.36.08 4.16.16 8.4.16h.56c4.08 0 6.8-.08 8.16-.24 1.84-.16 3.12-.64 3.84-1.28.64-.56 1.12-1.6 1.28-2.96.08-.88.16-2.72.16-5.52v-.4c0-2.64-.08-4.48-.24-5.36-.24-1.28-.64-2.24-1.44-2.8-.8-.64-2.16-1.04-4.08-1.2zm-3.12 9.84-8.8 5.28V10.56l8.8 5.28z"/>
    </symbol>
    <symbol id="icon-instagram" viewBox="0 0 32 32">
      <path d="M28.718 10.756a9.264 9.264 0 0 0-.596-3.145 6.547 6.547 0 0 0-3.743-3.737 9.42 9.42 0 0 0-3.108-.596c-1.368-.061-1.801-.078-5.273-.078s-3.916 0-5.274.078a9.413 9.413 0 0 0-3.106.596 6.541 6.541 0 0 0-3.743 3.737 9.288 9.288 0 0 0-.596 3.101c-.061 1.367-.08 1.8-.08 5.265s0 3.909.08 5.265a9.335 9.335 0 0 0 .596 3.104 6.548 6.548 0 0 0 3.744 3.735 9.37 9.37 0 0 0 3.106.639c1.369.061 1.803.08 5.274.08s3.916 0 5.274-.08a9.362 9.362 0 0 0 3.108-.595 6.555 6.555 0 0 0 3.743-3.737 9.35 9.35 0 0 0 .596-3.104c.061-1.365.08-1.798.08-5.265-.003-3.466-.003-3.906-.082-5.264zM15.99 22.531c-3.631 0-6.572-2.936-6.572-6.561s2.941-6.561 6.572-6.561c3.628 0 6.572 2.936 6.572 6.561s-2.944 6.561-6.572 6.561zm6.834-11.835a1.53 1.53 0 1 1 0-3.06 1.53 1.53 0 1 1 0 3.06z"/>
      <path d="M15.992 19.976a4.004 4.004 0 1 0 0-8.009 4.004 4.004 0 0 0 0 8.009z"/>
    </symbol>
    <symbol id="icon-facebook" viewBox="0 0 32 32">
      <path d="M19.52 4.64h.96v3.6h-1.2c-.48 0-.96 0-1.2.24s-.24.48-.24 1.04v1.28h2.64v3.04h-2.64v13.2h-4.08V13.76H11.6v-3.04h2.16V9.68c0-1.76.24-3.04.72-3.6.72-1.04 2.16-1.52 4.32-1.52.24.08.48.08.72.08z"/>
    </symbol>
    <symbol id="icon-menu" viewBox="0 0 32 32">
      <path d="M2.667 7.993c0-0.733 0.595-1.327 1.327-1.327h10.68c0.733 0 1.327 0.594 1.327 1.327s-0.594 1.327-1.327 1.327h-10.68c-0.733 0-1.327-0.594-1.327-1.327v0zM2.667 16c0-0.733 0.595-1.327 1.327-1.327h24.013c0.733 0 1.327 0.594 1.327 1.327s-0.594 1.327-1.327 1.327h-24.013c-0.733 0-1.327-0.594-1.327-1.327v0zM3.993 22.68c-0.733 0-1.327 0.594-1.327 1.327s0.594 1.327 1.327 1.327h16.013c0.733 0 1.327-0.594 1.327-1.327s-0.594-1.327-1.327-1.327h-16.013z"></path>
    </symbol>
  </defs>
</svg>
